<mxfile host="app.diagrams.net" modified="2023-09-27T09:29:12.627Z" agent="Mozilla/5.0 (Windows NT 10.0; Win64; x64) AppleWebKit/537.36 (KHTML, like Gecko) Chrome/95.0.4638.69 Safari/537.36" etag="CDWOgIioR75YFmlIakP_" version="21.8.2" type="github">
  <diagram name="Page-1" id="c37626ed-c26b-45fb-9056-f9ebc6bb27b6">
    <mxGraphModel dx="2146" dy="847" grid="1" gridSize="10" guides="1" tooltips="1" connect="1" arrows="1" fold="1" page="1" pageScale="1" pageWidth="1100" pageHeight="850" background="none" math="0" shadow="0">
      <root>
        <mxCell id="0" />
        <mxCell id="1" parent="0" />
        <mxCell id="1c7a67bf8fd3230f-83" value="&lt;font style=&quot;font-size: 17px;&quot;&gt;多燕瘦网络拓扑图--总部(白云)&lt;/font&gt;" style="whiteSpace=wrap;html=1;rounded=0;shadow=0;comic=0;strokeWidth=1;fontFamily=Verdana;fontSize=14;verticalAlign=top;fontStyle=1;" parent="1" vertex="1">
          <mxGeometry x="506" y="50" width="1704" height="860" as="geometry" />
        </mxCell>
        <mxCell id="QDnWGc42BfGMvYn1_fHW-36" value="" style="group" vertex="1" connectable="0" parent="1">
          <mxGeometry x="530" y="650" width="400" height="240" as="geometry" />
        </mxCell>
        <mxCell id="QDnWGc42BfGMvYn1_fHW-24" value="" style="whiteSpace=wrap;html=1;fillColor=#f5f5f5;strokeColor=#666666;fontColor=#333333;" vertex="1" parent="QDnWGc42BfGMvYn1_fHW-36">
          <mxGeometry width="400" height="240" as="geometry" />
        </mxCell>
        <mxCell id="QDnWGc42BfGMvYn1_fHW-25" value="&lt;font style=&quot;font-size: 16px;&quot;&gt;--2F--&lt;/font&gt;" style="text;strokeColor=none;align=center;fillColor=none;html=1;verticalAlign=middle;whiteSpace=wrap;rounded=0;" vertex="1" parent="QDnWGc42BfGMvYn1_fHW-36">
          <mxGeometry width="60" height="30" as="geometry" />
        </mxCell>
        <mxCell id="QDnWGc42BfGMvYn1_fHW-35" value="" style="group" vertex="1" connectable="0" parent="QDnWGc42BfGMvYn1_fHW-36">
          <mxGeometry x="73" y="36" width="254" height="168" as="geometry" />
        </mxCell>
        <mxCell id="QDnWGc42BfGMvYn1_fHW-26" value="2F接入交换机" style="shape=mxgraph.cisco.switches.workgroup_switch;sketch=0;html=1;pointerEvents=1;dashed=0;fillColor=#036897;strokeColor=#ffffff;strokeWidth=2;verticalLabelPosition=bottom;verticalAlign=top;align=center;outlineConnect=0;fontSize=13;" vertex="1" parent="QDnWGc42BfGMvYn1_fHW-35">
          <mxGeometry x="101" width="101" height="50" as="geometry" />
        </mxCell>
        <mxCell id="QDnWGc42BfGMvYn1_fHW-34" style="rounded=0;orthogonalLoop=1;jettySize=auto;html=1;exitX=0.5;exitY=0;exitDx=0;exitDy=0;exitPerimeter=0;endArrow=none;endFill=0;entryX=0.5;entryY=0.98;entryDx=0;entryDy=0;entryPerimeter=0;" edge="1" parent="QDnWGc42BfGMvYn1_fHW-35" source="QDnWGc42BfGMvYn1_fHW-27" target="QDnWGc42BfGMvYn1_fHW-26">
          <mxGeometry relative="1" as="geometry" />
        </mxCell>
        <mxCell id="QDnWGc42BfGMvYn1_fHW-27" value="云玑 瘦终端" style="shape=mxgraph.cisco.misc.umg_series;sketch=0;html=1;pointerEvents=1;dashed=0;fillColor=#036897;strokeColor=#ffffff;strokeWidth=2;verticalLabelPosition=bottom;verticalAlign=top;align=center;outlineConnect=0;fontSize=13;" vertex="1" parent="QDnWGc42BfGMvYn1_fHW-35">
          <mxGeometry y="112" width="101" height="50" as="geometry" />
        </mxCell>
        <mxCell id="QDnWGc42BfGMvYn1_fHW-30" value="PC" style="shape=mxgraph.cisco.servers.fileserver;sketch=0;html=1;pointerEvents=1;dashed=0;fillColor=#036897;strokeColor=#ffffff;strokeWidth=2;verticalLabelPosition=bottom;verticalAlign=top;align=center;outlineConnect=0;fontSize=13;" vertex="1" parent="QDnWGc42BfGMvYn1_fHW-35">
          <mxGeometry x="211" y="106" width="43" height="62" as="geometry" />
        </mxCell>
        <mxCell id="QDnWGc42BfGMvYn1_fHW-33" value="" style="endArrow=none;html=1;rounded=0;entryX=0.5;entryY=0.98;entryDx=0;entryDy=0;entryPerimeter=0;exitX=0.13;exitY=0.08;exitDx=0;exitDy=0;exitPerimeter=0;" edge="1" parent="QDnWGc42BfGMvYn1_fHW-35" source="QDnWGc42BfGMvYn1_fHW-30" target="QDnWGc42BfGMvYn1_fHW-26">
          <mxGeometry width="50" height="50" relative="1" as="geometry">
            <mxPoint x="202" y="170" as="sourcePoint" />
            <mxPoint x="252" y="120" as="targetPoint" />
          </mxGeometry>
        </mxCell>
        <mxCell id="QDnWGc42BfGMvYn1_fHW-37" value="" style="group" vertex="1" connectable="0" parent="1">
          <mxGeometry x="950" y="650" width="400" height="240" as="geometry" />
        </mxCell>
        <mxCell id="QDnWGc42BfGMvYn1_fHW-38" value="" style="whiteSpace=wrap;html=1;fillColor=#f5f5f5;strokeColor=#666666;fontColor=#333333;" vertex="1" parent="QDnWGc42BfGMvYn1_fHW-37">
          <mxGeometry width="400" height="240" as="geometry" />
        </mxCell>
        <mxCell id="QDnWGc42BfGMvYn1_fHW-39" value="&lt;font style=&quot;font-size: 16px;&quot;&gt;--3F--&lt;/font&gt;" style="text;strokeColor=none;align=center;fillColor=none;html=1;verticalAlign=middle;whiteSpace=wrap;rounded=0;" vertex="1" parent="QDnWGc42BfGMvYn1_fHW-37">
          <mxGeometry width="60" height="30" as="geometry" />
        </mxCell>
        <mxCell id="QDnWGc42BfGMvYn1_fHW-40" value="" style="group" vertex="1" connectable="0" parent="QDnWGc42BfGMvYn1_fHW-37">
          <mxGeometry x="73" y="36" width="254" height="168" as="geometry" />
        </mxCell>
        <mxCell id="QDnWGc42BfGMvYn1_fHW-41" value="3F接入交换机" style="shape=mxgraph.cisco.switches.workgroup_switch;sketch=0;html=1;pointerEvents=1;dashed=0;fillColor=#036897;strokeColor=#ffffff;strokeWidth=2;verticalLabelPosition=bottom;verticalAlign=top;align=center;outlineConnect=0;fontSize=13;" vertex="1" parent="QDnWGc42BfGMvYn1_fHW-40">
          <mxGeometry x="101" width="101" height="50" as="geometry" />
        </mxCell>
        <mxCell id="QDnWGc42BfGMvYn1_fHW-42" style="rounded=0;orthogonalLoop=1;jettySize=auto;html=1;exitX=0.5;exitY=0;exitDx=0;exitDy=0;exitPerimeter=0;endArrow=none;endFill=0;entryX=0.5;entryY=0.98;entryDx=0;entryDy=0;entryPerimeter=0;" edge="1" parent="QDnWGc42BfGMvYn1_fHW-40" source="QDnWGc42BfGMvYn1_fHW-43" target="QDnWGc42BfGMvYn1_fHW-41">
          <mxGeometry relative="1" as="geometry" />
        </mxCell>
        <mxCell id="QDnWGc42BfGMvYn1_fHW-43" value="云玑 瘦终端" style="shape=mxgraph.cisco.misc.umg_series;sketch=0;html=1;pointerEvents=1;dashed=0;fillColor=#036897;strokeColor=#ffffff;strokeWidth=2;verticalLabelPosition=bottom;verticalAlign=top;align=center;outlineConnect=0;fontSize=13;" vertex="1" parent="QDnWGc42BfGMvYn1_fHW-40">
          <mxGeometry y="112" width="101" height="50" as="geometry" />
        </mxCell>
        <mxCell id="QDnWGc42BfGMvYn1_fHW-44" value="PC" style="shape=mxgraph.cisco.servers.fileserver;sketch=0;html=1;pointerEvents=1;dashed=0;fillColor=#036897;strokeColor=#ffffff;strokeWidth=2;verticalLabelPosition=bottom;verticalAlign=top;align=center;outlineConnect=0;fontSize=13;" vertex="1" parent="QDnWGc42BfGMvYn1_fHW-40">
          <mxGeometry x="211" y="106" width="43" height="62" as="geometry" />
        </mxCell>
        <mxCell id="QDnWGc42BfGMvYn1_fHW-45" value="" style="endArrow=none;html=1;rounded=0;entryX=0.5;entryY=0.98;entryDx=0;entryDy=0;entryPerimeter=0;exitX=0.13;exitY=0.08;exitDx=0;exitDy=0;exitPerimeter=0;" edge="1" parent="QDnWGc42BfGMvYn1_fHW-40" source="QDnWGc42BfGMvYn1_fHW-44" target="QDnWGc42BfGMvYn1_fHW-41">
          <mxGeometry width="50" height="50" relative="1" as="geometry">
            <mxPoint x="202" y="170" as="sourcePoint" />
            <mxPoint x="252" y="120" as="targetPoint" />
          </mxGeometry>
        </mxCell>
        <mxCell id="QDnWGc42BfGMvYn1_fHW-46" value="" style="group" vertex="1" connectable="0" parent="1">
          <mxGeometry x="1370" y="650" width="400" height="240" as="geometry" />
        </mxCell>
        <mxCell id="QDnWGc42BfGMvYn1_fHW-47" value="" style="whiteSpace=wrap;html=1;fillColor=#f5f5f5;strokeColor=#666666;fontColor=#333333;" vertex="1" parent="QDnWGc42BfGMvYn1_fHW-46">
          <mxGeometry width="400" height="240" as="geometry" />
        </mxCell>
        <mxCell id="QDnWGc42BfGMvYn1_fHW-48" value="&lt;font style=&quot;font-size: 16px;&quot;&gt;--4F--&lt;/font&gt;" style="text;strokeColor=none;align=center;fillColor=none;html=1;verticalAlign=middle;whiteSpace=wrap;rounded=0;" vertex="1" parent="QDnWGc42BfGMvYn1_fHW-46">
          <mxGeometry width="60" height="30" as="geometry" />
        </mxCell>
        <mxCell id="QDnWGc42BfGMvYn1_fHW-49" value="" style="group" vertex="1" connectable="0" parent="QDnWGc42BfGMvYn1_fHW-46">
          <mxGeometry x="73" y="36" width="254" height="168" as="geometry" />
        </mxCell>
        <mxCell id="QDnWGc42BfGMvYn1_fHW-50" value="4F接入交换机" style="shape=mxgraph.cisco.switches.workgroup_switch;sketch=0;html=1;pointerEvents=1;dashed=0;fillColor=#036897;strokeColor=#ffffff;strokeWidth=2;verticalLabelPosition=bottom;verticalAlign=top;align=center;outlineConnect=0;fontSize=13;" vertex="1" parent="QDnWGc42BfGMvYn1_fHW-49">
          <mxGeometry x="101" width="101" height="50" as="geometry" />
        </mxCell>
        <mxCell id="QDnWGc42BfGMvYn1_fHW-51" style="rounded=0;orthogonalLoop=1;jettySize=auto;html=1;exitX=0.5;exitY=0;exitDx=0;exitDy=0;exitPerimeter=0;endArrow=none;endFill=0;entryX=0.5;entryY=0.98;entryDx=0;entryDy=0;entryPerimeter=0;" edge="1" parent="QDnWGc42BfGMvYn1_fHW-49" source="QDnWGc42BfGMvYn1_fHW-52" target="QDnWGc42BfGMvYn1_fHW-50">
          <mxGeometry relative="1" as="geometry" />
        </mxCell>
        <mxCell id="QDnWGc42BfGMvYn1_fHW-52" value="云玑 瘦终端" style="shape=mxgraph.cisco.misc.umg_series;sketch=0;html=1;pointerEvents=1;dashed=0;fillColor=#036897;strokeColor=#ffffff;strokeWidth=2;verticalLabelPosition=bottom;verticalAlign=top;align=center;outlineConnect=0;fontSize=13;" vertex="1" parent="QDnWGc42BfGMvYn1_fHW-49">
          <mxGeometry y="112" width="101" height="50" as="geometry" />
        </mxCell>
        <mxCell id="QDnWGc42BfGMvYn1_fHW-53" value="PC" style="shape=mxgraph.cisco.servers.fileserver;sketch=0;html=1;pointerEvents=1;dashed=0;fillColor=#036897;strokeColor=#ffffff;strokeWidth=2;verticalLabelPosition=bottom;verticalAlign=top;align=center;outlineConnect=0;fontSize=13;" vertex="1" parent="QDnWGc42BfGMvYn1_fHW-49">
          <mxGeometry x="211" y="106" width="43" height="62" as="geometry" />
        </mxCell>
        <mxCell id="QDnWGc42BfGMvYn1_fHW-54" value="" style="endArrow=none;html=1;rounded=0;entryX=0.5;entryY=0.98;entryDx=0;entryDy=0;entryPerimeter=0;exitX=0.13;exitY=0.08;exitDx=0;exitDy=0;exitPerimeter=0;" edge="1" parent="QDnWGc42BfGMvYn1_fHW-49" source="QDnWGc42BfGMvYn1_fHW-53" target="QDnWGc42BfGMvYn1_fHW-50">
          <mxGeometry width="50" height="50" relative="1" as="geometry">
            <mxPoint x="202" y="170" as="sourcePoint" />
            <mxPoint x="252" y="120" as="targetPoint" />
          </mxGeometry>
        </mxCell>
        <mxCell id="QDnWGc42BfGMvYn1_fHW-55" value="" style="group" vertex="1" connectable="0" parent="1">
          <mxGeometry x="1790" y="650" width="400" height="240" as="geometry" />
        </mxCell>
        <mxCell id="QDnWGc42BfGMvYn1_fHW-56" value="" style="whiteSpace=wrap;html=1;fillColor=#f5f5f5;strokeColor=#666666;fontColor=#333333;" vertex="1" parent="QDnWGc42BfGMvYn1_fHW-55">
          <mxGeometry width="400" height="240" as="geometry" />
        </mxCell>
        <mxCell id="QDnWGc42BfGMvYn1_fHW-57" value="&lt;font style=&quot;font-size: 16px;&quot;&gt;--5F--&lt;/font&gt;" style="text;strokeColor=none;align=center;fillColor=none;html=1;verticalAlign=middle;whiteSpace=wrap;rounded=0;" vertex="1" parent="QDnWGc42BfGMvYn1_fHW-55">
          <mxGeometry width="60" height="30" as="geometry" />
        </mxCell>
        <mxCell id="QDnWGc42BfGMvYn1_fHW-58" value="" style="group" vertex="1" connectable="0" parent="QDnWGc42BfGMvYn1_fHW-55">
          <mxGeometry x="73" y="36" width="254" height="168" as="geometry" />
        </mxCell>
        <mxCell id="QDnWGc42BfGMvYn1_fHW-59" value="5F接入交换机" style="shape=mxgraph.cisco.switches.workgroup_switch;sketch=0;html=1;pointerEvents=1;dashed=0;fillColor=#036897;strokeColor=#ffffff;strokeWidth=2;verticalLabelPosition=bottom;verticalAlign=top;align=center;outlineConnect=0;fontSize=13;" vertex="1" parent="QDnWGc42BfGMvYn1_fHW-58">
          <mxGeometry x="101" width="101" height="50" as="geometry" />
        </mxCell>
        <mxCell id="QDnWGc42BfGMvYn1_fHW-60" style="rounded=0;orthogonalLoop=1;jettySize=auto;html=1;exitX=0.5;exitY=0;exitDx=0;exitDy=0;exitPerimeter=0;endArrow=none;endFill=0;entryX=0.5;entryY=0.98;entryDx=0;entryDy=0;entryPerimeter=0;" edge="1" parent="QDnWGc42BfGMvYn1_fHW-58" source="QDnWGc42BfGMvYn1_fHW-61" target="QDnWGc42BfGMvYn1_fHW-59">
          <mxGeometry relative="1" as="geometry" />
        </mxCell>
        <mxCell id="QDnWGc42BfGMvYn1_fHW-61" value="云玑 瘦终端" style="shape=mxgraph.cisco.misc.umg_series;sketch=0;html=1;pointerEvents=1;dashed=0;fillColor=#036897;strokeColor=#ffffff;strokeWidth=2;verticalLabelPosition=bottom;verticalAlign=top;align=center;outlineConnect=0;fontSize=13;" vertex="1" parent="QDnWGc42BfGMvYn1_fHW-58">
          <mxGeometry y="112" width="101" height="50" as="geometry" />
        </mxCell>
        <mxCell id="QDnWGc42BfGMvYn1_fHW-62" value="PC" style="shape=mxgraph.cisco.servers.fileserver;sketch=0;html=1;pointerEvents=1;dashed=0;fillColor=#036897;strokeColor=#ffffff;strokeWidth=2;verticalLabelPosition=bottom;verticalAlign=top;align=center;outlineConnect=0;fontSize=13;" vertex="1" parent="QDnWGc42BfGMvYn1_fHW-58">
          <mxGeometry x="211" y="106" width="43" height="62" as="geometry" />
        </mxCell>
        <mxCell id="QDnWGc42BfGMvYn1_fHW-63" value="" style="endArrow=none;html=1;rounded=0;entryX=0.5;entryY=0.98;entryDx=0;entryDy=0;entryPerimeter=0;exitX=0.13;exitY=0.08;exitDx=0;exitDy=0;exitPerimeter=0;" edge="1" parent="QDnWGc42BfGMvYn1_fHW-58" source="QDnWGc42BfGMvYn1_fHW-62" target="QDnWGc42BfGMvYn1_fHW-59">
          <mxGeometry width="50" height="50" relative="1" as="geometry">
            <mxPoint x="202" y="170" as="sourcePoint" />
            <mxPoint x="252" y="120" as="targetPoint" />
          </mxGeometry>
        </mxCell>
        <mxCell id="QDnWGc42BfGMvYn1_fHW-4" value="" style="group" vertex="1" connectable="0" parent="1">
          <mxGeometry x="1041" y="92" width="634" height="80" as="geometry" />
        </mxCell>
        <mxCell id="1c7a67bf8fd3230f-15" value="电信1000M拨号&lt;br&gt;宽带①" style="ellipse;shape=cloud;whiteSpace=wrap;html=1;rounded=0;shadow=0;comic=0;strokeWidth=1;fontFamily=Verdana;fontSize=12;" parent="QDnWGc42BfGMvYn1_fHW-4" vertex="1">
          <mxGeometry width="120" height="80" as="geometry" />
        </mxCell>
        <mxCell id="QDnWGc42BfGMvYn1_fHW-1" value="电信1000M拨号&lt;br&gt;宽带②" style="ellipse;shape=cloud;whiteSpace=wrap;html=1;rounded=0;shadow=0;comic=0;strokeWidth=1;fontFamily=Verdana;fontSize=12;" vertex="1" parent="QDnWGc42BfGMvYn1_fHW-4">
          <mxGeometry x="170" width="120" height="80" as="geometry" />
        </mxCell>
        <mxCell id="QDnWGc42BfGMvYn1_fHW-2" value="电信100M专线&lt;br&gt;宽带①" style="ellipse;shape=cloud;whiteSpace=wrap;html=1;rounded=0;shadow=0;comic=0;strokeWidth=1;fontFamily=Verdana;fontSize=12;" vertex="1" parent="QDnWGc42BfGMvYn1_fHW-4">
          <mxGeometry x="344" width="120" height="80" as="geometry" />
        </mxCell>
        <mxCell id="QDnWGc42BfGMvYn1_fHW-3" value="联通50M专线&lt;br&gt;宽带②" style="ellipse;shape=cloud;whiteSpace=wrap;html=1;rounded=0;shadow=0;comic=0;strokeWidth=1;fontFamily=Verdana;fontSize=12;" vertex="1" parent="QDnWGc42BfGMvYn1_fHW-4">
          <mxGeometry x="514" width="120" height="80" as="geometry" />
        </mxCell>
        <mxCell id="QDnWGc42BfGMvYn1_fHW-13" style="orthogonalLoop=1;jettySize=auto;html=1;exitX=0.8;exitY=0.8;exitDx=0;exitDy=0;exitPerimeter=0;entryX=0;entryY=0.5;entryDx=0;entryDy=0;entryPerimeter=0;strokeWidth=1;strokeColor=default;rounded=0;startArrow=none;startFill=0;endArrow=none;endFill=0;" edge="1" parent="1" source="1c7a67bf8fd3230f-15" target="QDnWGc42BfGMvYn1_fHW-5">
          <mxGeometry relative="1" as="geometry" />
        </mxCell>
        <mxCell id="QDnWGc42BfGMvYn1_fHW-14" style="orthogonalLoop=1;jettySize=auto;html=1;exitX=0.8;exitY=0.8;exitDx=0;exitDy=0;exitPerimeter=0;entryX=0.12;entryY=0.1;entryDx=0;entryDy=0;entryPerimeter=0;strokeWidth=1;strokeColor=default;rounded=0;startArrow=none;startFill=0;endArrow=none;endFill=0;" edge="1" parent="1" source="QDnWGc42BfGMvYn1_fHW-1" target="QDnWGc42BfGMvYn1_fHW-5">
          <mxGeometry relative="1" as="geometry">
            <mxPoint x="1147" y="166" as="sourcePoint" />
            <mxPoint x="1329" y="227" as="targetPoint" />
          </mxGeometry>
        </mxCell>
        <mxCell id="QDnWGc42BfGMvYn1_fHW-15" style="orthogonalLoop=1;jettySize=auto;html=1;exitX=0.88;exitY=0.1;exitDx=0;exitDy=0;exitPerimeter=0;entryX=0.31;entryY=0.8;entryDx=0;entryDy=0;entryPerimeter=0;strokeWidth=1;strokeColor=default;rounded=0;startArrow=none;startFill=0;endArrow=none;endFill=0;" edge="1" parent="1" source="QDnWGc42BfGMvYn1_fHW-5" target="QDnWGc42BfGMvYn1_fHW-2">
          <mxGeometry relative="1" as="geometry">
            <mxPoint x="1157" y="176" as="sourcePoint" />
            <mxPoint x="1339" y="237" as="targetPoint" />
          </mxGeometry>
        </mxCell>
        <mxCell id="QDnWGc42BfGMvYn1_fHW-16" style="orthogonalLoop=1;jettySize=auto;html=1;exitX=1;exitY=0.5;exitDx=0;exitDy=0;exitPerimeter=0;entryX=0.31;entryY=0.8;entryDx=0;entryDy=0;entryPerimeter=0;strokeWidth=1;strokeColor=default;rounded=0;startArrow=none;startFill=0;endArrow=none;endFill=0;" edge="1" parent="1" source="QDnWGc42BfGMvYn1_fHW-5" target="QDnWGc42BfGMvYn1_fHW-3">
          <mxGeometry relative="1" as="geometry">
            <mxPoint x="1167" y="186" as="sourcePoint" />
            <mxPoint x="1349" y="247" as="targetPoint" />
          </mxGeometry>
        </mxCell>
        <mxCell id="QDnWGc42BfGMvYn1_fHW-22" value="" style="endArrow=none;html=1;rounded=0;entryX=0.5;entryY=1;entryDx=0;entryDy=0;entryPerimeter=0;exitX=0.5;exitY=0;exitDx=0;exitDy=0;exitPerimeter=0;shape=link;fillColor=#fff2cc;strokeColor=#d6b656;strokeWidth=2;gradientColor=#ffd966;" edge="1" parent="1" source="QDnWGc42BfGMvYn1_fHW-21" target="QDnWGc42BfGMvYn1_fHW-5">
          <mxGeometry width="50" height="50" relative="1" as="geometry">
            <mxPoint x="1142" y="410" as="sourcePoint" />
            <mxPoint x="1192" y="360" as="targetPoint" />
          </mxGeometry>
        </mxCell>
        <mxCell id="QDnWGc42BfGMvYn1_fHW-67" value="" style="endArrow=none;html=1;rounded=0;entryX=0;entryY=0.5;entryDx=0;entryDy=0;entryPerimeter=0;exitX=1;exitY=0;exitDx=0;exitDy=0;exitPerimeter=0;fillColor=#fff2cc;strokeColor=#d6b656;strokeWidth=2;gradientColor=#ffd966;" edge="1" parent="1" source="QDnWGc42BfGMvYn1_fHW-26" target="QDnWGc42BfGMvYn1_fHW-21">
          <mxGeometry width="50" height="50" relative="1" as="geometry">
            <mxPoint x="1021.5699999999999" y="582" as="sourcePoint" />
            <mxPoint x="1021.5699999999999" y="343" as="targetPoint" />
          </mxGeometry>
        </mxCell>
        <mxCell id="QDnWGc42BfGMvYn1_fHW-68" value="" style="endArrow=none;html=1;rounded=0;entryX=0;entryY=1;entryDx=0;entryDy=0;entryPerimeter=0;exitX=1;exitY=0;exitDx=0;exitDy=0;exitPerimeter=0;fillColor=#fff2cc;strokeColor=#d6b656;strokeWidth=2;gradientColor=#ffd966;" edge="1" parent="1" source="QDnWGc42BfGMvYn1_fHW-41" target="QDnWGc42BfGMvYn1_fHW-21">
          <mxGeometry width="50" height="50" relative="1" as="geometry">
            <mxPoint x="815" y="696" as="sourcePoint" />
            <mxPoint x="1332" y="578" as="targetPoint" />
          </mxGeometry>
        </mxCell>
        <mxCell id="QDnWGc42BfGMvYn1_fHW-69" value="" style="endArrow=none;html=1;rounded=0;entryX=0.95;entryY=0.96;entryDx=0;entryDy=0;entryPerimeter=0;fillColor=#fff2cc;strokeColor=#d6b656;strokeWidth=2;gradientColor=#ffd966;exitX=0.16;exitY=0.23;exitDx=0;exitDy=0;exitPerimeter=0;" edge="1" parent="1" source="QDnWGc42BfGMvYn1_fHW-50" target="QDnWGc42BfGMvYn1_fHW-21">
          <mxGeometry width="50" height="50" relative="1" as="geometry">
            <mxPoint x="825" y="706" as="sourcePoint" />
            <mxPoint x="1342" y="588" as="targetPoint" />
          </mxGeometry>
        </mxCell>
        <mxCell id="QDnWGc42BfGMvYn1_fHW-70" value="" style="endArrow=none;html=1;rounded=0;entryX=1;entryY=0.5;entryDx=0;entryDy=0;entryPerimeter=0;fillColor=#fff2cc;strokeColor=#d6b656;strokeWidth=2;gradientColor=#ffd966;exitX=0.16;exitY=0.23;exitDx=0;exitDy=0;exitPerimeter=0;" edge="1" parent="1" source="QDnWGc42BfGMvYn1_fHW-59" target="QDnWGc42BfGMvYn1_fHW-21">
          <mxGeometry width="50" height="50" relative="1" as="geometry">
            <mxPoint x="1553" y="686" as="sourcePoint" />
            <mxPoint x="1358" y="568" as="targetPoint" />
          </mxGeometry>
        </mxCell>
        <mxCell id="QDnWGc42BfGMvYn1_fHW-20" value="奇安信&amp;nbsp;&amp;nbsp;NBM5350-HJ-SP 上网行为管理" style="shape=mxgraph.cisco.misc.detector;sketch=0;html=1;pointerEvents=1;dashed=0;fillColor=#036897;strokeColor=#ffffff;strokeWidth=2;verticalLabelPosition=bottom;verticalAlign=top;align=center;outlineConnect=0;" vertex="1" parent="1">
          <mxGeometry x="1315.22" y="381" width="85.56" height="60" as="geometry" />
        </mxCell>
        <mxCell id="QDnWGc42BfGMvYn1_fHW-19" value="奇安信&amp;nbsp;NSG4000-TG35P-QW 防火墙" style="sketch=0;points=[[0.015,0.015,0],[0.985,0.015,0],[0.985,0.985,0],[0.015,0.985,0],[0.25,0,0],[0.5,0,0],[0.75,0,0],[1,0.25,0],[1,0.5,0],[1,0.75,0],[0.75,1,0],[0.5,1,0],[0.25,1,0],[0,0.75,0],[0,0.5,0],[0,0.25,0]];verticalLabelPosition=bottom;html=1;verticalAlign=top;aspect=fixed;align=center;pointerEvents=1;shape=mxgraph.cisco19.rect;prIcon=firewall;fillColor=#FAFAFA;strokeColor=#005073;" vertex="1" parent="1">
          <mxGeometry x="1319.6000000000001" y="283" width="76.8" height="60" as="geometry" />
        </mxCell>
        <mxCell id="QDnWGc42BfGMvYn1_fHW-5" value="华为 AR 6280 出口路由器" style="shape=mxgraph.cisco.routers.router;html=1;dashed=0;fillColor=#036897;strokeColor=#ffffff;strokeWidth=2;verticalLabelPosition=bottom;verticalAlign=top;rounded=0;shadow=0;comic=0;fontFamily=Verdana;fontSize=12;" vertex="1" parent="1">
          <mxGeometry x="1319" y="190" width="78" height="53" as="geometry" />
        </mxCell>
        <mxCell id="QDnWGc42BfGMvYn1_fHW-21" value="华为&amp;nbsp;S6730-H48X6C 核心交换机" style="shape=mxgraph.cisco.misc.route_switch_processor;html=1;dashed=0;fillColor=#036897;strokeColor=#ffffff;strokeWidth=2;verticalLabelPosition=bottom;verticalAlign=top;rounded=0;shadow=0;comic=0;fontFamily=Verdana;fontSize=12;" vertex="1" parent="1">
          <mxGeometry x="1321.8" y="482" width="72.4" height="86" as="geometry" />
        </mxCell>
        <mxCell id="QDnWGc42BfGMvYn1_fHW-72" value="&lt;div style=&quot;&quot;&gt;&lt;span style=&quot;font-size: 20px; background-color: initial;&quot;&gt;&amp;nbsp; &amp;nbsp; 光纤&lt;/span&gt;&lt;/div&gt;&lt;font style=&quot;&quot;&gt;&lt;div style=&quot;&quot;&gt;&lt;span style=&quot;font-size: 20px;&quot;&gt;&lt;br&gt;&lt;/span&gt;&lt;/div&gt;&lt;span style=&quot;font-size: 20px;&quot;&gt;&lt;div style=&quot;&quot;&gt;&lt;span style=&quot;background-color: initial;&quot;&gt;&amp;nbsp; &amp;nbsp; 网线&lt;/span&gt;&lt;/div&gt;&lt;/span&gt;&lt;/font&gt;" style="rounded=1;whiteSpace=wrap;html=1;align=left;arcSize=10;fillColor=#f5f5f5;fontColor=#333333;strokeColor=#666666;" vertex="1" parent="1">
          <mxGeometry x="530" y="70" width="240" height="108" as="geometry" />
        </mxCell>
        <mxCell id="QDnWGc42BfGMvYn1_fHW-73" value="" style="endArrow=none;html=1;rounded=0;exitX=0.255;exitY=0.465;exitDx=0;exitDy=0;exitPerimeter=0;fillColor=#ffcd28;gradientColor=#ffa500;strokeColor=#d79b00;strokeWidth=2;" edge="1" parent="1">
          <mxGeometry width="50" height="50" relative="1" as="geometry">
            <mxPoint x="611.52" y="99.00000000000011" as="sourcePoint" />
            <mxPoint x="742" y="99" as="targetPoint" />
          </mxGeometry>
        </mxCell>
        <mxCell id="QDnWGc42BfGMvYn1_fHW-74" value="" style="endArrow=none;html=1;rounded=0;exitX=0.255;exitY=0.465;exitDx=0;exitDy=0;exitPerimeter=0;strokeWidth=2;" edge="1" parent="1">
          <mxGeometry width="50" height="50" relative="1" as="geometry">
            <mxPoint x="611.52" y="148.0000000000001" as="sourcePoint" />
            <mxPoint x="742" y="148" as="targetPoint" />
          </mxGeometry>
        </mxCell>
      </root>
    </mxGraphModel>
  </diagram>
</mxfile>
